<svg xmlns="http://www.w3.org/2000/svg" viewBox="0 0 208 208">
	<path fill="#FFF" d="M13 13h182v182H13V13z"/>
	<path fill="#999" d="M13 13v182h182V13H13zm13 13h156v156H26V26z"/>
	<path fill="#666" d="M40,129.90000081062317 L40,67 L58.50000023841858,67 L77.00000047683716,90.12500029802322 L95.50000071525574,67 L114.00000095367432,67 L114.00000095367432,129.90000081062317 L95.50000071525574,129.90000081062317 L95.50000071525574,93.82500034570694 L77.00000047683716,116.95000064373016 L58.50000023841858,93.82500034570694 L58.50000023841858,129.90000081062317 L40,129.90000081062317 z" id="svg_3" stroke-dasharray="none" stroke="null"></path>
	<path fill="#666" d="M146.0000001192093,132.4666669368744 L118,101.66666680574417 L136.66666674613953,101.66666680574417 L136.66666674613953,69 L155.33333349227905,69 L155.33333349227905,101.66666680574417 L174.00000023841858,101.66666680574417 L146.0000001192093,132.4666669368744 z" id="svg_4" stroke-dasharray="none" stroke="null"></path>
</svg>